<svg
  width="38"
  height="38"
  viewBox="0 0 38 38"
  fill="none"
  xmlns="http://www.w3.org/2000/svg"
>
  <path
    d="M14.25 34.8337C15.1244 34.8337 15.8333 34.1248 15.8333 33.2503C15.8333 32.3759 15.1244 31.667 14.25 31.667C13.3755 31.667 12.6666 32.3759 12.6666 33.2503C12.6666 34.1248 13.3755 34.8337 14.25 34.8337Z"
    stroke="black"
    stroke-width="2"
    stroke-linecap="round"
    stroke-linejoin="round"
  />
  <path
    d="M31.6667 34.8337C32.5412 34.8337 33.25 34.1248 33.25 33.2503C33.25 32.3759 32.5412 31.667 31.6667 31.667C30.7923 31.667 30.0834 32.3759 30.0834 33.2503C30.0834 34.1248 30.7923 34.8337 31.6667 34.8337Z"
    stroke="black"
    stroke-width="2"
    stroke-linecap="round"
    stroke-linejoin="round"
  />
  <path
    d="M1.58337 1.58301H7.91671L12.16 22.7838C12.3048 23.5128 12.7014 24.1676 13.2803 24.6336C13.8592 25.0997 14.5836 25.3472 15.3267 25.333H30.7167C31.4598 25.3472 32.1842 25.0997 32.7631 24.6336C33.342 24.1676 33.7386 23.5128 33.8834 22.7838L36.4167 9.49967H9.50004"
    stroke="black"
    stroke-width="2"
    stroke-linecap="round"
    stroke-linejoin="round"
  />
</svg>
