<svg
  width="430"
  height="160"
  viewBox="0 0 430 160"
  fill="none"
  xmlns="http://www.w3.org/2000/svg"
>
<path
    d="M0.786621 0.65332H50.0054V61.0781H95.7085V0.65332H144.927V156H95.7085V92.7188H50.0054V156H0.786621V0.65332ZM241.058 159.186C232.415 159.186 224.725 158.38 217.986 156.769C211.248 155.158 205.352 152.924 200.298 150.067C195.245 147.211 190.923 143.842 187.334 139.96C183.819 136.005 180.962 131.72 178.765 127.106C176.568 122.492 174.957 117.621 173.931 112.494C172.979 107.367 172.503 102.167 172.503 96.8936C172.503 91.6934 172.979 86.5664 173.931 81.5127C174.957 76.3857 176.568 71.5151 178.765 66.9009C180.962 62.2134 183.819 57.9287 187.334 54.0469C190.85 50.0918 195.135 46.686 200.188 43.8296C205.315 40.8999 211.248 38.6294 217.986 37.0181C224.725 35.3335 232.415 34.4912 241.058 34.4912C249.7 34.4912 257.391 35.3335 264.129 37.0181C270.867 38.6294 276.763 40.8999 281.817 43.8296C286.944 46.686 291.265 50.0918 294.781 54.0469C298.296 57.9287 301.153 62.2134 303.35 66.9009C305.547 71.5151 307.122 76.3857 308.074 81.5127C309.1 86.5664 309.612 91.6934 309.612 96.8936C309.612 102.167 309.1 107.367 308.074 112.494C307.122 117.621 305.547 122.492 303.35 127.106C301.153 131.72 298.26 136.005 294.671 139.96C291.155 143.842 286.871 147.211 281.817 150.067C276.763 152.924 270.867 155.158 264.129 156.769C257.391 158.38 249.7 159.186 241.058 159.186ZM219.964 96.8936C219.964 100.849 220.33 104.73 221.062 108.539C221.795 112.274 222.967 115.644 224.578 118.646C226.263 121.576 228.423 123.957 231.06 125.788C233.77 127.545 237.103 128.424 241.058 128.424C245.013 128.424 248.309 127.545 250.945 125.788C253.655 123.957 255.816 121.576 257.427 118.646C259.112 115.644 260.32 112.274 261.053 108.539C261.785 104.73 262.151 100.849 262.151 96.8936C262.151 92.9385 261.785 89.0933 261.053 85.3579C260.32 81.5493 259.112 78.1802 257.427 75.2505C255.816 72.2476 253.655 69.8306 250.945 67.9995C248.309 66.1685 245.013 65.2529 241.058 65.2529C237.103 65.2529 233.77 66.1685 231.06 67.9995C228.423 69.8306 226.263 72.2476 224.578 75.2505C222.967 78.1802 221.795 81.5493 221.062 85.3579C220.33 89.0933 219.964 92.9385 219.964 96.8936ZM394.537 159.186C387.725 159.186 381.207 158.344 374.981 156.659C368.755 155.048 363.262 152.301 358.501 148.419C353.814 144.464 350.042 139.264 347.186 132.819C344.402 126.3 343.011 118.207 343.011 108.539V64.7036H321.148V57.5625L372.894 1.3125H390.472V37.4575H425.628C424.749 41.8521 423.943 46.2832 423.211 50.751C422.552 55.2188 422.186 59.8696 422.112 64.7036H390.472V108.1C390.472 110.736 390.655 113.3 391.021 115.79C391.46 118.207 392.303 120.368 393.548 122.272C394.793 124.103 396.587 125.604 398.931 126.776C401.275 127.875 404.388 128.424 408.27 128.424C410.76 128.424 413.506 128.205 416.509 127.765C419.512 127.252 422.918 126.337 426.727 125.019L429.363 153.473C424.749 155.158 419.439 156.513 413.433 157.538C407.5 158.637 401.202 159.186 394.537 159.186Z"
    fill="#FFFDF5"
  />
</svg>
